<svg width="94" height="94" viewBox="0 0 94 94" fill="none" xmlns="http://www.w3.org/2000/svg">
<g clip-path="url(#clip0_105_18)">
<path d="M82.3951 0H11.6049C5.19571 0 0 5.19571 0 11.6049V82.3951C0 88.8043 5.19571 94 11.6049 94H82.3951C88.8043 94 94 88.8043 94 82.3951V11.6049C94 5.19571 88.8043 0 82.3951 0Z" fill="#006775"/>
<path d="M47 93.8257C72.8612 93.8257 93.8259 72.861 93.8259 46.9998C93.8259 21.1385 72.8612 0.173828 47 0.173828C21.1387 0.173828 0.174057 21.1385 0.174057 46.9998C0.174057 72.861 21.1387 93.8257 47 93.8257Z" fill="#EDF8FA"/>
<path fill-rule="evenodd" clip-rule="evenodd" d="M47 0.348148C21.2349 0.348148 0.348148 21.2349 0.348148 47C0.348148 72.7651 21.2349 93.6518 47 93.6518C72.7651 93.6518 93.6518 72.7651 93.6518 47C93.6518 21.2349 72.7651 0.348148 47 0.348148ZM0 47C0 21.0426 21.0426 0 47 0C72.9574 0 94 21.0426 94 47C94 72.9574 72.9574 94 47 94C21.0426 94 0 72.9574 0 47Z" fill="#4D4C4C"/>
<path d="M86.863 46.9994C86.863 69.0152 69.0158 86.8624 47 86.8624C24.9843 86.8624 7.13707 69.0152 7.13707 46.9994C7.13707 24.9837 24.9843 7.13647 47 7.13647C69.0158 7.13647 86.863 24.9837 86.863 46.9994Z" fill="#006775"/>
<path fill-rule="evenodd" clip-rule="evenodd" d="M47 7.31079C25.0805 7.31079 7.31116 25.0801 7.31116 46.9997C7.31116 68.9193 25.0805 86.6886 47 86.6886C68.9196 86.6886 86.6889 68.9193 86.6889 46.9997C86.6889 25.0801 68.9196 7.31079 47 7.31079ZM6.96301 46.9997C6.96301 24.8878 24.8882 6.96265 47 6.96265C69.1119 6.96265 87.0371 24.8878 87.0371 46.9997C87.0371 69.1116 69.1119 87.0367 47 87.0367C24.8882 87.0367 6.96301 69.1116 6.96301 46.9997Z" fill="#4C4C4C"/>
<path d="M86.7396 52.1583L72.0604 37.4791C68.5229 33.4787 59.4926 29.7052 50.4999 38.4993L43.9999 33.4993L35.9577 33.1481V38.5702L32.9999 37.9993L25.8399 32.9993L21.9999 35.4993L19.4999 42.4993L17.9999 48.9993L16.4999 54.4993L13.4999 57.9993L51.5624 86.8394C69.8453 84.7566 84.3922 70.408 86.7393 52.1915L86.7396 52.1583Z" fill="#055661"/>
<path d="M61.4148 32.1555V32.1885C54.2737 32.1885 48.0912 37.9412 48.0912 45.5121C48.0912 51.1326 51.6288 56.1579 56.9186 58.0423C58.3734 58.5382 59.8611 58.8027 61.4149 58.8027C68.5561 58.8027 74.7386 53.05 74.7386 45.479C74.7386 37.9743 68.6223 32.1555 61.4148 32.1555ZM71.3662 38.9332C72.4241 40.5863 73.1184 42.5368 73.2506 44.6197H70.8703C70.7711 42.8013 70.2752 41.1152 69.5478 39.5613H69.5148C70.143 39.3628 70.7711 39.1647 71.3662 38.9332ZM70.4075 37.6437C69.8455 37.8422 69.2834 38.0073 68.7213 38.1396C67.531 36.3212 65.911 34.8335 64.0266 33.7756C66.5392 34.3707 68.7874 35.7261 70.4075 37.6437ZM65.1837 46.2396H69.4818C69.3826 47.6943 69.0188 49.0827 68.4569 50.3723C67.2998 50.0747 66.1096 49.8763 64.8863 49.711C65.0516 48.5871 65.1508 47.4299 65.1837 46.2396ZM64.787 40.52C65.9441 40.3877 67.0682 40.1894 68.1591 39.9249C68.8865 41.3465 69.3495 42.9335 69.4816 44.6196H65.1836C65.1508 43.1981 65.0185 41.8424 64.787 40.52ZM67.2996 38.4702C66.374 38.6687 65.4482 38.8009 64.4893 38.9001C64.1587 37.4784 63.762 36.1229 63.2331 34.8667C64.8532 35.7261 66.2418 36.9825 67.2996 38.4702ZM63.2 40.6192C63.3986 41.9085 63.5306 43.231 63.5637 44.5867H59.4311C59.4641 43.2313 59.5964 41.9085 59.7946 40.6524C60.2906 40.6854 60.7865 40.6854 61.2825 40.6854C61.9106 40.6854 62.5388 40.6523 63.1669 40.6192V40.6195L63.2 40.6192ZM55.6622 40.1895C56.5219 40.3549 57.3815 40.4869 58.2741 40.5863C58.0756 41.8756 57.9434 43.231 57.8773 44.6529H54.4722C54.5713 43.0659 55.001 41.5782 55.6625 40.2227L55.6622 40.1895ZM57.8773 46.2728C57.9104 47.4299 58.0096 48.5871 58.1747 49.7112C57.2159 49.8105 56.2904 49.9428 55.3977 50.1411C54.9018 48.9508 54.5712 47.6284 54.4719 46.2729L57.8773 46.2728ZM58.4062 51.2979C58.6707 52.6864 59.0675 54.009 59.5303 55.2322C58.1748 54.2734 56.9846 53.017 56.1251 51.5954C56.8854 51.4632 57.6459 51.364 58.4062 51.2979ZM58.5716 38.9992C57.8772 38.933 57.1831 38.8339 56.5218 38.7347C57.3483 37.5445 58.3733 36.4866 59.5634 35.66C59.1666 36.7179 58.836 37.8421 58.5716 38.9992ZM60.0927 39.0321C60.0951 39.0321 60.0975 39.0324 60.1 39.0324C60.4306 37.4578 60.923 35.9812 61.4811 34.6351C62.043 35.9906 62.539 37.4784 62.8696 39.0321C62.3405 39.0652 61.8116 39.0652 61.2826 39.0652C60.8884 39.0652 60.4941 39.0326 60.0999 39.0324C60.0975 39.0434 60.0949 39.0542 60.0924 39.0653V39.0321C60.0927 39.0321 60.0924 39.0321 60.0927 39.0321ZM59.5304 33.6435C59.6957 33.6765 59.894 33.7097 60.0594 33.7426C58.0096 34.8664 56.2904 36.4866 55.067 38.4373C54.1082 38.2388 53.1826 37.9744 52.3229 37.6769C54.1415 35.5609 56.654 34.0732 59.5304 33.6435ZM51.3642 38.9662C52.29 39.3298 53.2816 39.6275 54.3068 39.8918C53.6455 41.3466 53.2158 42.9335 53.1165 44.6197H49.4798C49.612 42.5368 50.3062 40.6191 51.3642 38.9662ZM49.4798 46.2396H53.1165C53.2157 47.6944 53.5463 49.1159 54.0754 50.4052L54.0422 50.4382C52.9843 50.7027 51.9925 51.0333 51.0336 51.3971C50.1411 49.8765 49.5791 48.1241 49.4798 46.2396ZM59.4974 57.2489C56.4227 56.7531 53.7116 55.1 51.8933 52.7196C52.7861 52.389 53.7448 52.1245 54.7366 51.893C55.9599 54.1081 57.8114 55.9264 60.0263 57.1498C59.861 57.1827 59.6626 57.2159 59.4974 57.2489ZM61.448 56.158C60.7908 54.6136 60.2973 52.9382 59.934 51.1325C59.9318 51.1326 59.9294 51.1326 59.9272 51.133H59.9271H59.9272V51.0998C59.9294 51.1107 59.9318 51.1215 59.934 51.1325C60.3618 51.0999 60.8219 51.0999 61.2494 51.0999C61.8116 51.0999 62.4067 51.133 62.9687 51.133C62.6051 52.918 62.1091 54.6041 61.448 56.158ZM61.2497 49.4797C60.7206 49.4797 60.1917 49.4797 59.6627 49.5127C59.5305 48.4547 59.4313 47.3306 59.3982 46.2067V46.2064V46.2067H63.4978C63.4648 47.3637 63.3987 48.4548 63.2333 49.5459C62.5722 49.5127 61.9107 49.4797 61.2497 49.4797ZM64.6548 51.3311C65.7127 51.4302 66.7377 51.6285 67.6965 51.8271C66.6056 53.5462 65.0516 55.0009 63.2664 55.9596C63.8615 54.5048 64.3242 52.951 64.6548 51.3311ZM64.0599 57.0836C66.1427 55.9264 67.8949 54.2073 69.0852 52.1576C69.6803 52.3229 70.2755 52.5213 70.8374 52.7196C69.1843 54.8684 66.8038 56.4555 64.0599 57.0836ZM69.8124 50.736C70.4075 49.3475 70.8043 47.8267 70.9035 46.2396H73.2838C73.1515 48.1239 72.5893 49.8763 71.6968 51.3971C71.0687 51.1658 70.4407 50.9343 69.8124 50.736Z" fill="#00CC96"/>
<path d="M62.0759 39.7935C65.3873 39.7935 68.0934 42.4995 68.0934 45.8109C68.0934 49.1222 65.3873 51.8283 62.0759 51.8283C58.7645 51.8283 56.0585 49.1222 56.0585 45.8109C56.0585 42.4995 58.7644 39.7935 62.0759 39.7935Z" fill="#00CC96"/>
<path d="M75.631 64.8861L69.2172 53.7445C69.0189 53.4469 68.6221 53.3477 68.3246 53.513L68.0601 53.6784L67.0682 51.9921V51.9923H67.0349C68.5227 50.8021 69.5806 49.116 69.9112 47.0993C70.6386 42.8014 67.7291 38.7019 63.3982 37.9745C59.1003 37.2471 55.0007 40.1564 54.2733 44.4875C53.5459 48.7854 56.4553 52.8849 60.7864 53.6123C62.2412 53.8437 63.7289 53.6784 65.0182 53.1494L66.0101 54.8356L65.7456 55.001C65.448 55.1993 65.3488 55.5961 65.5141 55.8936L71.928 67.0352C72.1264 67.3328 72.5231 67.4319 72.8208 67.2667L75.3995 65.7788C75.6972 65.5804 75.7963 65.1835 75.631 64.8861ZM62.2095 51.418C59.0461 51.418 56.4816 48.8534 56.4816 45.69C56.4816 42.5266 59.0461 39.962 62.2095 39.962C65.3729 39.962 67.9374 42.5266 67.9374 45.69C67.9374 48.8534 65.3729 51.418 62.2095 51.418Z" fill="#F7F7F8"/>
<path d="M58.439 44.7856C58.406 45.0172 58.2076 45.1493 58.0092 45.1163C57.8439 45.0833 57.7118 44.9178 57.7118 44.7527C57.7118 44.6865 57.7448 44.6204 57.7448 44.5212C58.1415 42.1079 60.4559 40.4547 62.8691 40.8516C62.9353 40.8516 63.0014 40.8845 63.0677 40.8845H63.1006C63.332 40.9176 63.4642 41.1161 63.4312 41.3475C63.3982 41.546 63.1997 41.7112 62.9683 41.6781C62.9022 41.6451 62.803 41.6451 62.7368 41.6451C60.7532 41.3145 58.8357 42.67 58.505 44.6537C58.505 44.6867 58.505 44.7198 58.472 44.786H58.4388L58.439 44.7856Z" fill="#F7F7F8"/>
<path d="M68.3575 53.4796L66.0102 54.8351L65.7457 55.0004C65.4483 55.1657 65.3489 55.5625 65.5143 55.8931L71.9281 67.0347C72.0935 67.3322 72.4903 67.4314 72.8209 67.2662L75.3996 65.7784C75.6971 65.613 75.7964 65.2163 75.6311 64.8856L69.2173 53.7441C69.0521 53.4466 68.6885 53.3473 68.3908 53.4796H68.3575Z" fill="#E84F4F"/>
<path d="M68.0269 53.679L68.2914 53.5137C68.5888 53.3484 68.9858 53.4476 69.1842 53.7452L75.598 64.8867C75.7634 65.1842 75.6641 65.5811 75.3666 65.7795L74.0773 66.5398L67.1014 54.2081L68.0269 53.679Z" fill="#C94545"/>
<path d="M46.3788 40.5512V39.5593C46.3788 37.5756 46.1804 36.1541 45.7837 35.3274C45.387 34.5008 44.6266 33.8066 43.4364 33.2446C42.2461 32.7156 40.8246 32.418 39.1055 32.418C37.5517 32.418 36.2621 32.6495 35.138 33.1784C34.047 33.6743 33.2535 34.3688 32.7577 35.2613C32.2617 36.1538 32.0303 37.5425 32.0303 39.4602C32.0303 40.7826 32.1955 41.8737 32.5592 42.7331C32.8899 43.5927 33.3525 44.254 33.8485 44.7499C34.3775 45.2459 35.4354 46.0062 37.0556 47.0972C38.6755 48.1551 39.6674 48.9156 40.0971 49.3784C40.4939 49.8413 40.6922 50.8 40.6922 52.2547C40.6922 52.9159 40.593 53.4118 40.3616 53.7755C40.1631 54.106 39.8326 54.2714 39.4027 54.2714C38.9729 54.2714 38.6753 54.1391 38.51 53.8746C38.3448 53.6101 38.2455 53.015 38.2455 52.0562V49.0148H32.1955V50.6677C32.1955 52.5521 32.3941 54.0069 32.7577 54.9988C33.1544 56.0236 33.948 56.8501 35.171 57.5114C36.394 58.1726 37.8821 58.5032 39.6343 58.5032C41.2213 58.5032 42.6099 58.2058 43.7999 57.6437C44.9902 57.0816 45.7836 56.3544 46.2132 55.5278C46.643 54.6683 46.8413 53.379 46.8413 51.5935C46.8413 49.147 46.4777 47.3617 45.7172 46.2707C44.9569 45.1797 43.1385 43.758 40.2622 42.0388C39.2704 41.4437 38.6423 40.9148 38.4109 40.518C38.1794 40.0883 38.0803 39.4602 38.0803 38.6336C38.0803 37.9723 38.1794 37.5096 38.3777 37.1788C38.576 36.848 38.8736 36.6829 39.2704 36.6829C39.6341 36.6829 39.8984 36.8152 40.0308 37.0465C40.1961 37.278 40.2622 37.8399 40.2622 38.6996V40.551H46.3126L46.3788 40.5512Z" fill="#00CC96"/>
<path d="M28.3163 9.63174H8.29787C7.56049 9.63174 6.96301 9.03427 6.96301 8.2975C6.96301 7.56013 7.56049 6.96265 8.29787 6.96265H28.3163C29.0531 6.96265 29.6507 7.56013 29.6507 8.2975C29.6507 9.03427 29.0531 9.63174 28.3163 9.63174Z" fill="#093D44"/>
<path d="M10.967 14.9702H8.29787C7.56049 14.9702 6.96301 14.3726 6.96301 13.6358C6.96301 12.8984 7.56049 12.301 8.29787 12.301H10.967C11.7037 12.301 12.3012 12.8984 12.3012 13.6358C12.3012 14.3726 11.7037 14.9702 10.967 14.9702Z" fill="#093D44"/>
<path d="M14.9703 20.3088H8.29787C7.56049 20.3088 6.96301 19.7112 6.96301 18.9744C6.96301 18.2371 7.56049 17.6396 8.29787 17.6396H14.9703C15.7077 17.6396 16.3051 18.2371 16.3051 18.9744C16.3051 19.7112 15.7077 20.3088 14.9703 20.3088Z" fill="#093D44"/>
<path d="M85.7021 76.3608H71.0225C70.2851 76.3608 69.6877 75.7632 69.6877 75.0259C69.6877 74.2891 70.2851 73.6917 71.0225 73.6917H85.7021C86.4395 73.6917 87.0371 74.2891 87.0371 75.0259C87.0371 75.7632 86.4395 76.3608 85.7021 76.3608Z" fill="#093D44"/>
<path d="M85.7022 81.6993H77.6949C76.9581 81.6993 76.3605 81.1018 76.3605 80.3644C76.3605 79.6276 76.9581 79.0302 77.6949 79.0302H85.7022C86.4395 79.0302 87.037 79.6276 87.037 80.3644C87.037 81.1018 86.4395 81.6993 85.7022 81.6993Z" fill="#093D44"/>
<path d="M85.7023 87.0367H68.3534C67.616 87.0367 67.0186 86.4392 67.0186 85.7024C67.0186 84.965 67.616 84.3676 68.3534 84.3676H85.7023C86.4396 84.3676 87.0371 84.965 87.0371 85.7024C87.0371 86.4392 86.4396 87.0367 85.7023 87.0367Z" fill="#093D44"/>
<path d="M20.3083 14.9702H16.305C15.5676 14.9702 14.9702 14.3726 14.9702 13.6358C14.9702 12.8984 15.5676 12.301 16.305 12.301H20.3083C21.0457 12.301 21.6432 12.8984 21.6432 13.6358C21.6432 14.3726 21.0457 14.9702 20.3083 14.9702Z" fill="#093D44"/>
<path d="M25.5093 58L24.6242 53.4449H20.2578L19.3137 58H13L19.0074 33H26.0276L32 58H25.5093ZM22.441 38.8411H22.323L21.0839 49.0664H23.7391L22.441 38.8411Z" fill="#00CC96"/>
</g>
<defs>
<clipPath id="clip0_105_18">
<rect width="94" height="94" fill="white"/>
</clipPath>
</defs>
</svg>
