<svg width="810" height="810" viewBox="0 0 810 810" fill="none" xmlns="http://www.w3.org/2000/svg">
<rect width="810" height="810" rx="100" fill="#006775"/>
<circle cx="405" cy="405" r="403.5" fill="#EDF8FA" stroke="#4D4C4C" stroke-width="3"/>
<path d="M748.5 405C748.5 594.71 594.71 748.5 405 748.5C215.29 748.5 61.5 594.71 61.5 405C61.5 215.29 215.29 61.5 405 61.5C594.71 61.5 748.5 215.29 748.5 405Z" fill="#006775" stroke="#4C4C4C" stroke-width="3"/>
<path d="M747.437 449.445L620.946 322.954C590.463 288.483 516.392 245.465 438.902 321.244L401.865 285.634H309.848V332.356L279.934 301.018L220.677 291.333L191.903 333.781L261.131 406.712L269.678 473.947L219.253 422.382L176.804 480.784L444.314 748.293C601.858 730.345 727.209 606.703 747.434 449.731V449.445H747.437Z" fill="#055661"/>
<path d="M529.211 277.086V277.37C467.676 277.37 414.401 326.941 414.401 392.18C414.401 440.612 444.885 483.915 490.467 500.153C503.003 504.426 515.823 506.705 529.212 506.705C590.748 506.705 644.022 457.134 644.022 391.895C644.022 327.227 591.318 277.086 529.211 277.086ZM614.962 335.489C624.078 349.734 630.061 366.542 631.2 384.49H610.689C609.834 368.821 605.561 354.292 599.293 340.902H599.009C604.422 339.191 609.834 337.484 614.962 335.489ZM606.701 324.378C601.858 326.088 597.015 327.511 592.171 328.651C581.914 312.982 567.955 300.162 551.717 291.046C573.368 296.174 592.741 307.854 606.701 324.378ZM561.688 398.449H598.724C597.87 410.984 594.735 422.948 589.893 434.06C579.922 431.496 569.666 429.786 559.125 428.362C560.549 418.677 561.404 408.706 561.688 398.449ZM558.269 349.163C568.24 348.023 577.926 346.314 587.327 344.035C593.595 356.285 597.584 369.96 598.723 384.489H561.687C561.404 372.24 560.264 360.558 558.269 349.163ZM579.92 331.5C571.944 333.21 563.967 334.349 555.704 335.204C552.855 322.953 549.437 311.273 544.879 300.448C558.84 307.854 570.805 318.68 579.92 331.5ZM544.594 350.018C546.305 361.128 547.443 372.524 547.728 384.206H512.117C512.402 372.526 513.542 361.128 515.25 350.304C519.524 350.588 523.797 350.588 528.071 350.588C533.483 350.588 538.896 350.303 544.309 350.018V350.02L544.594 350.018ZM479.641 346.315C487.049 347.74 494.456 348.878 502.147 349.734C500.437 360.844 499.298 372.524 498.728 384.776H469.386C470.24 371.101 473.943 358.281 479.643 346.601L479.641 346.315ZM498.728 398.735C499.013 408.706 499.868 418.677 501.291 428.364C493.029 429.219 485.054 430.359 477.361 432.068C473.088 421.811 470.239 410.416 469.384 398.736L498.728 398.735ZM503.286 442.036C505.565 454.001 508.984 465.398 512.972 475.938C501.292 467.676 491.036 456.85 483.629 444.6C490.181 443.461 496.734 442.606 503.286 442.036ZM504.711 336.058C498.727 335.488 492.746 334.634 487.048 333.779C494.17 323.523 503.002 314.407 513.257 307.284C509.838 316.4 506.989 326.087 504.711 336.058ZM517.818 336.342C517.839 336.342 517.86 336.344 517.881 336.344C520.73 322.776 524.973 310.052 529.782 298.453C534.624 310.133 538.898 322.953 541.747 336.342C537.188 336.627 532.63 336.627 528.072 336.627C524.675 336.627 521.277 336.346 517.88 336.344C517.86 336.439 517.837 336.532 517.816 336.628V336.342C517.818 336.342 517.816 336.342 517.818 336.342ZM512.973 289.908C514.397 290.192 516.106 290.478 517.531 290.762C499.868 300.446 485.054 314.407 474.512 331.216C466.25 329.506 458.274 327.227 450.866 324.664C466.537 306.43 488.187 293.611 512.973 289.908ZM442.605 335.774C450.582 338.907 459.127 341.472 467.961 343.75C462.263 356.286 458.56 369.96 457.704 384.49H426.367C427.506 366.542 433.488 350.017 442.605 335.774ZM426.367 398.449H457.704C458.559 410.985 461.408 423.234 465.967 434.344L465.681 434.628C456.565 436.907 448.019 439.756 439.756 442.891C432.065 429.788 427.222 414.688 426.367 398.449ZM512.689 493.316C486.194 489.044 462.832 474.799 447.164 454.287C454.857 451.438 463.118 449.159 471.665 447.164C482.206 466.252 498.16 481.92 517.246 492.462C515.822 492.746 514.112 493.032 512.689 493.316ZM529.497 483.916C523.834 470.608 519.581 456.171 516.451 440.611C516.432 440.612 516.411 440.612 516.392 440.615H516.391H516.392V440.329C516.411 440.423 516.432 440.516 516.451 440.611C520.137 440.33 524.102 440.33 527.786 440.33C532.63 440.33 537.758 440.615 542.601 440.615C539.468 455.997 535.194 470.526 529.497 483.916ZM527.788 426.369C523.229 426.369 518.671 426.369 514.113 426.653C512.974 417.536 512.119 407.85 511.834 398.165V398.163V398.165H547.16C546.876 408.135 546.306 417.537 544.881 426.939C539.184 426.653 533.484 426.369 527.788 426.369ZM557.13 442.322C566.246 443.176 575.078 444.885 583.34 446.596C573.94 461.41 560.549 473.945 545.166 482.206C550.294 469.67 554.281 456.281 557.13 442.322ZM552.004 491.892C569.951 481.92 585.05 467.107 595.307 449.444C600.435 450.869 605.564 452.578 610.406 454.287C596.161 472.803 575.648 486.479 552.004 491.892ZM601.573 437.194C606.701 425.23 610.12 412.125 610.975 398.449H631.486C630.346 414.686 625.502 429.786 617.811 442.891C612.399 440.898 606.987 438.903 601.573 437.194Z" fill="#00CC96"/>
<path d="M534.91 342.895C563.444 342.895 586.763 366.213 586.763 394.747C586.763 423.281 563.444 446.599 534.91 446.599C506.376 446.599 483.058 423.281 483.058 394.747C483.058 366.213 506.375 342.895 534.91 342.895Z" fill="#00CC96"/>
<path d="M651.713 559.128L596.445 463.121C594.736 460.556 591.317 459.702 588.753 461.126L586.474 462.551L577.927 448.02V448.022H577.64C590.46 437.766 599.576 423.237 602.425 405.859C608.693 368.824 583.622 333.498 546.302 327.23C509.267 320.962 473.941 346.032 467.673 383.353C461.405 420.388 486.475 455.714 523.796 461.982C536.332 463.976 549.152 462.551 560.262 457.993L568.809 472.523L566.53 473.948C563.965 475.657 563.111 479.076 564.535 481.64L619.804 577.647C621.513 580.212 624.932 581.066 627.497 579.642L649.718 566.821C652.283 565.111 653.137 561.691 651.713 559.128ZM536.059 443.073C508.8 443.073 486.702 420.974 486.702 393.715C486.702 366.456 508.8 344.357 536.059 344.357C563.318 344.357 585.417 366.456 585.417 393.715C585.417 420.974 563.318 443.073 536.059 443.073Z" fill="#F7F7F8"/>
<path d="M503.57 385.915C503.286 387.91 501.576 389.049 499.867 388.764C498.442 388.48 497.304 387.054 497.304 385.631C497.304 385.061 497.588 384.491 497.588 383.636C501.007 362.841 520.95 348.595 541.745 352.015C542.315 352.015 542.885 352.299 543.456 352.299H543.74C545.734 352.584 546.873 354.294 546.589 356.288C546.304 357.999 544.594 359.422 542.6 359.137C542.03 358.853 541.175 358.853 540.605 358.853C523.512 356.004 506.989 367.684 504.139 384.778C504.139 385.062 504.139 385.348 503.855 385.918H503.569L503.57 385.915Z" fill="#F7F7F8"/>
<path d="M589.039 460.839L568.812 472.519L566.533 473.944C563.97 475.368 563.114 478.787 564.539 481.636L619.807 577.643C621.232 580.207 624.651 581.062 627.5 579.638L649.721 566.818C652.284 565.393 653.14 561.974 651.716 559.125L596.448 463.118C595.024 460.555 591.891 459.699 589.326 460.839H589.039Z" fill="#E84F4F"/>
<path d="M586.188 462.548L588.467 461.124C591.03 459.699 594.451 460.554 596.16 463.118L651.428 559.125C652.853 561.689 651.998 565.109 649.434 566.818L638.324 573.37L578.213 467.107L586.188 462.548Z" fill="#C94545"/>
<path d="M287.626 349.447V340.9C287.626 323.806 285.916 311.557 282.498 304.434C279.079 297.311 272.527 291.329 262.271 286.486C252.014 281.928 239.765 279.363 224.951 279.363C211.562 279.363 200.45 281.358 190.763 285.916C181.362 290.189 174.525 296.173 170.252 303.864C165.978 311.555 163.984 323.521 163.984 340.046C163.984 351.441 165.408 360.843 168.542 368.249C171.391 375.656 175.378 381.354 179.652 385.627C184.21 389.901 193.326 396.453 207.287 405.854C221.246 414.97 229.793 421.523 233.496 425.511C236.915 429.5 238.624 437.761 238.624 450.296C238.624 455.994 237.769 460.267 235.775 463.401C234.065 466.249 231.217 467.674 227.512 467.674C223.809 467.674 221.244 466.534 219.82 464.255C218.396 461.976 217.541 456.848 217.541 448.586V422.378H165.408V436.621C165.408 452.859 167.119 465.395 170.252 473.942C173.671 482.773 180.509 489.895 191.048 495.593C201.586 501.291 214.409 504.14 229.508 504.14C243.183 504.14 255.149 501.577 265.403 496.733C275.66 491.89 282.497 485.623 286.199 478.501C289.902 471.094 291.611 459.984 291.611 444.599C291.611 423.517 288.478 408.133 281.925 398.732C275.373 389.331 259.704 377.08 234.919 362.266C226.372 357.138 220.96 352.58 218.966 349.161C216.971 345.458 216.117 340.046 216.117 332.923C216.117 327.225 216.971 323.238 218.68 320.387C220.389 317.537 222.953 316.114 226.372 316.114C229.506 316.114 231.784 317.254 232.925 319.247C234.349 321.242 234.919 326.084 234.919 333.492V349.445H287.055H287.626V349.447ZM310.132 283.922V499.582H407.563V456.564H366.255V408.986H401.297V367.962H366.255V326.654H403.576V283.635H310.132V283.922Z" fill="#00CC96"/>
<path d="M244.002 82.9996H71.5025C65.1485 82.9996 60 77.8512 60 71.5025C60 65.1485 65.1485 60 71.5025 60H244.002C250.351 60 255.5 65.1485 255.5 71.5025C255.5 77.8512 250.351 82.9996 244.002 82.9996Z" fill="#093D44"/>
<path d="M94.5021 129H71.5025C65.1485 129 60 123.851 60 117.502C60 111.148 65.1485 106 71.5025 106H94.5021C100.851 106 105.999 111.148 105.999 117.502C105.999 123.851 100.851 129 94.5021 129Z" fill="#093D44"/>
<path d="M128.999 175H71.5025C65.1485 175 60 169.851 60 163.502C60 157.148 65.1485 152 71.5025 152H128.999C135.353 152 140.501 157.148 140.501 163.502C140.501 169.851 135.353 175 128.999 175Z" fill="#093D44"/>
<path d="M738.497 658H612.002C605.648 658 600.5 652.851 600.5 646.497C600.5 640.148 605.648 635 612.002 635H738.497C744.851 635 750 640.148 750 646.497C750 652.851 744.851 658 738.497 658Z" fill="#093D44"/>
<path d="M738.498 704H669.499C663.15 704 658.001 698.851 658.001 692.497C658.001 686.148 663.15 681 669.499 681H738.498C744.852 681 750 686.148 750 692.497C750 698.851 744.852 704 738.498 704Z" fill="#093D44"/>
<path d="M738.498 750H589.002C582.648 750 577.5 744.851 577.5 738.502C577.5 732.148 582.648 727 589.002 727H738.498C744.852 727 750 732.148 750 738.502C750 744.851 744.852 750 738.498 750Z" fill="#093D44"/>
<path d="M174.998 129H140.501C134.147 129 128.999 123.851 128.999 117.502C128.999 111.148 134.147 106 140.501 106H174.998C181.352 106 186.501 111.148 186.501 117.502C186.501 123.851 181.352 129 174.998 129Z" fill="#093D44"/>
</svg>
